/* Erzeugt mit Gimp */
#define cursor_zoom_select_mask_width 16
#define cursor_zoom_select_mask_height 16
static unsigned char cursor_zoom_select_mask_bits[] = {
   0xf0, 0x01, 0xf8, 0x03, 0x0c, 0x06, 0x46, 0x0c, 0x53, 0x19, 0xe3, 0x18,
   0xbb, 0x1b, 0xe3, 0x18, 0x53, 0x19, 0x46, 0x0c, 0x0c, 0x0e, 0xf8, 0x1f,
   0xf0, 0x3f, 0x00, 0x7c, 0x00, 0xf8, 0x00, 0xf0 };
