/* Erzeugt mit Gimp */
#define cursor_autoraise_scanare_width 16
#define cursor_autoraise_scanare_height 16
static unsigned char cursor_autoraise_scanare_bits[] = {
   0xea, 0x2b, 0xe1, 0x43, 0xf0, 0x07, 0xc1, 0x41, 0xc4, 0x11, 0xc7, 0x71,
   0xff, 0x7f, 0x7f, 0x7f, 0xff, 0x7f, 0xc7, 0x71, 0xc4, 0x11, 0xc1, 0x41,
   0xf0, 0x07, 0xe1, 0x43, 0xea, 0x2b, 0x00, 0x00 };
