/* Erzeugt mit Gimp */
#define cursor_autoraise_scanare_width 16
#define cursor_autoraise_scanare_height 16
#define cursor_autoraise_scanare_x_hot 7
#define cursor_autoraise_scanare_y_hot 7
static unsigned char cursor_autoraise_scanare_bits[] = {
   0xff, 0x7f, 0x81, 0x40, 0xc1, 0x41, 0x81, 0x40, 0x81, 0x40, 0x81, 0x40,
   0x85, 0x50, 0x7f, 0x7f, 0x85, 0x50, 0x81, 0x40, 0x81, 0x40, 0x81, 0x40,
   0xc1, 0x41, 0x81, 0x40, 0xff, 0x7f, 0x00, 0x00 };
