/* Erzeugt mit Gimp */
#define cursor_autoraise_scanare_width 16
#define cursor_autoraise_scanare_height 16
static unsigned char cursor_autoraise_scanare_bits[] = {
   0xaa, 0x2a, 0xc1, 0x41, 0xe0, 0x03, 0x81, 0x40, 0x80, 0x00, 0x85, 0x50,
   0x86, 0x30, 0x7f, 0x7f, 0x86, 0x30, 0x85, 0x50, 0x80, 0x00, 0x81, 0x40,
   0xe0, 0x03, 0xc1, 0x41, 0xaa, 0x2a, 0x00, 0x00 };
