/* XPM */
static char * plustek_logo_2_xpm[] = {
"256 48 24 1",
" 	c None",
".	c #3A4A52",
"+	c #3E4E56",
"@	c #3E4E52",
"#	c #42525A",
"$	c #46565E",
"%	c #3E4A52",
"&	c #46525A",
"*	c #4A5A62",
"=	c #46565A",
"-	c #723A42",
";	c #6A2A32",
">	c #6A2A36",
",	c #6E363E",
"'	c #6E323E",
")	c #6E323A",
"!	c #723642",
"~	c #6A2E36",
"{	c #72363E",
"]	c #4A565E",
"^	c #424E56",
"/	c #4A5A5E",
"(	c #425256",
"_	c #763A42",
"                                                                                                                                                                                                                                                                ",
"                         .                              +@                                                                                                                                                                                                      ",
"                         ...                          #...                                                                                                                                                                                                      ",
"                         .@.@.                      $....%                                                                                                                                                                                                      ",
"                         ......+                  &..@@..@                                                                                                                                                                                                      ",
"                         .@.@@%..%%             ..+@...@@.                                                                                                                                                                                                      ",
"                         .......@@.@#         %@...@.....@                                                                                                                                                                                                      ",
"                         .@..@........*     +.............                                                                                                                                                                                                      ",
"                         *...@@....%@.%.  #%%@.@...@@..@.                                                                                                                                                                                                       ",
"                            +....@.@.@@@@%%.....@@...@#                                                                                                                                                                                                         ",
"                              =@.@.......@.@.@...@..                                                                                                                                                                                       -                    ",
"                                #.........@.......                                              ;;;;;;;;;;;;;;;;;>>;>       ;;;;;;;;;                                                                                              ;;;;;;;;>                    ",
"                                 =@....@...@.@...                                               ;;;;;;;;;;;;;;;>;;;;;>,     ;;;;;;;;,                                                            '                                 ;;;;;;;;;                    ",
"                                 @.@@@@.......@@.$                                              >>>>>>>>>>>>>;;;;;;>>;;)    >>>>>>>;                                                        !;>;;                                  >>>>>>>;;                    ",
"%@$                            #.......@.@.@...@@.@=                            #%              ;;;;;;;;;;~~~>;;;>;;;;;;{   ;;;;;;;;                                                     ~;;>;>;;                                  ;;;;;;>>;                    ",
"...%#                        @%.+.......@.........@%.#                        @+..              ;;;;;;;;;      ~>;;;;;;;>   ;;;;;;>;                                                     ;;;;;;;;                                  ;;;;;;;;;                    ",
"@.....]                    ^.+..@....@...@.@.......%.../                    +..%@@              ;;;;;;;>>       ;;;>>;>;;   ;;;;;;;;                                                     >;;>;>>>                                  ;;;;;;;;>                    ",
".@@%%@.@                 #@@..@..@@@@..@   .@@..@.@.%%@..                 ^....@..              >>>>>>>;;       ;>>;;>;;;  ~>>>>>;>>                                  );;;;;;;;;;;;;;;;;>;>;;;;;;;;;;;;         ,;;>>;;;)          ;>>>>;;>;        ~;;;;;;;;   ",
"...@.@.@.@*            &.............@      $@@...@....@@@@*            &@.@.....@              ;;;;;;;;~       ;;;;;;;;;  ;;;;;;;;;   ;;;;;;;;;       ;;;;;;;;    );;;;;;;;;;;;;;;;;;;;;;>;>;;;;;;;;;;      );>>>;;>;;>>>>~       ;;;;>>;;;       ~;;;;;;;;    ",
"..@........%^       /@.@@..@..@....$           #@..@@......@.(       /@.@...@@....             -;;;;;;;>-       ;;;;;;>>>  ;;;;;>;;>   >>>>>>>>-       ;>>>>>>>   ;>;>>;>>>>>>>>>>>>>>>;;;;;;;;;;;>>>;~    ~;;;;;;;;;;;;;;;;;>     ;;;;;;;;;      ~;>>>>>>~     ",
"..........@...@    ..@.....@..@..                +...@.......@..   /..@..@....@@.@             -;;;;;>;>        ;>>;>;;;>  ;;;;;;;;;   ;;;;;;;;        ;;;;;;;;   ;;;;>;;;;;~~~~~~~~~~>>;;>;>>;>>~~~~~    ;;;;;;;>     ;;;;;;;>    ;;;;;;>>;     ;>;;;;;;~      ",
"@..@.@.@.@..@...+@%.....@@..@../                   @@....@.@...@.@@..@.......@....             ,>>>>>;;;      ->>;;>;;;>   >>>>;>>;;   ;;;;;;;;        ;;;;;;;;   ;>;;;;;;;             -;;;;;>;;        ;;;>>;;>       >>;;;;;;   >>>;;>;;>    ~;;;;;;;~       ",
".@.@.@.@..@.@.....@@.........#                       @@@...............@.@.....@.@             ~;;;;;>;>   >>>;;;;;;;;;~   ;;;;;;;;;   ;;;;;;>;        ;;;;;;>;   ;;;;;;;;;              ;>;;;;;;       ~;>;;>>;        ;>>>>;;;   ;;>>;;;;>   ,;;;;;;;;        ",
"@............@@..@...@@..@.@                           ..@.@.@..@.@@..@...@@......             ~>;;;;;;;   ~;;;;;;;;>>'    ;;;>;;>>>   >>>>>>;;        >>>>>>;>   ;>>;>>>>;             ~;;;;;;;;       >>;;;;;~        ;;;;;;;>,  ;;;;;;;;;  ,>;;>>>>;         ",
" #......@.....@....@.....                                $.@..@.....@..@....@@.@./             ;;;;>;>;>    >>;>>;>~,      ;;;;;;;;    ;;;;;;>>        ;;;;;;;>    ,;;;;;;>>;           >;>>;>;;;      ;;;;;;;;>--     -;;;;>>;;;  ;;;;>>;;> ~;>>;;;;>          ",
"   +.@.@..@....@......@@(                                 ...@..@..@.......@...]               ;>>>;;;>;    ~;>,,          >>;>>;;;    ;;;;;;;;       ,;;;;;;;;      ;;;;>;;>;)         >>;;>;;;;      >;;>>;;;;;>;;;;;;;;;;;;;;>  >;;>;;>;; ~;;;;;;;;          ",
"     @..@.@.....@@.......                                (...........@.@.....$                 ;;;;>;;;~                   ;;;;;;;;    >;;;>;;>       >;;;;>;;~       ~;;;;;;>;;        ;;;;;>;>>      ;>;;>>;;>;>;;;;;>>>>;;;;;'  >>;;;;>;;  ;;;;;;;>,         ",
"       ....@@..@...@@...@.%                            &.@.@..@.@@..@...@@.@                   ;;;;;;;;>                   ;>;;>>>>    ;>>>;;;;       ;>>>>;;;~         ;;;;>;;;;_      ;;;;;;>;;      >;;;;;>;,                   ;;;;;;;;>  ,;>>>>;;>         ",
"         @..@....@........%.@                        =@..@%.@.....@..@...+                     ;;>;>;>;,                   ;;;;;;;>    ;;;;>>;>       ;;;;;>;;,          ~>;;;;;>>!     >>;>;;;;;      ;;;;;;>;-                   ;;>>;;>;;   ~;;;>;;;~        ",
"           =.@......@+   @+@.@.@                   ....@..  &.@..@....@                        >>;;;>;;                    ;>>;;;>;    ;;;;;;;;,     ;;;;;;;>;            ;;;>>;;;;     ;;>;;;;;>      ;>>;;;;;~                   ;>;;>;;;>    ~;;;;;;;;       ",
"             $@@....     ..@...%.+               .........    $....@.                          ;;>;;;;;                   >;;;;;;;;    ;;>;;>;>;,   >>;;;>;;;>            ;>;;>;;;>     ;;;>;>>;>      ;;>>;;>;;                   ;;;;>;;;;     ;;>>>>;;       ",
"               #.@       ....@..@@.=           +..@@@..@..      +.@                            ;;;;;;>>                   ;;;>>>;>;    >>;;;;>;;>;;;;;>>>;;;>;   )        >;;;;;;;;     ;;;;>;;;;       ;;;>;;>>;                  ;;;;;;>;;     ,;;;;;;>;      ",
"                         ....@@...@.@/       ^.@....@..@@@                                     >;>;>;;;                   >;;;;;;;;    ;;>>;;;;;;;;;;;;;;>;;;;   >>;>>;;~;;;;;>>>;;     ;>;;;;;;;;;;>>  ;;;>;;;>;;;       -~;;     >>;;>;;;>      ;;;;>;;;)     ",
"                         @.@.....@.....&   (%...@....@....                                     ;;;>;;;;                   ;>;;;>;>>    ;;;;;;;>;>;>;;~;;;;>;;>   ;;;;;;;;;;>>;;;;>'     ~;;;;;>;;>;>;;   ~;;;;;;;;>;;;>>;>;;;>     ;;>;;;>>;       ;;;;;;;;-    ",
"                         @........@..%.%%...@%............                                    -~;;;;;>;                   ;;;;;;;;>     ;;>;>;;;>;>~  ;>;;;>;;   );;;>;;;>;;>;;;~        ~;>>;>>;>;;>,     ;;;;>>;;;>;;;;;>>;,     ;;>;;;;;>       ,>;;>;;>;    ",
"                         ..@..@@....@.@@.@...@..@@@..@...@                                    ,>;;;>>;>                   ;>>>;>;;;      >;>;;>;;;    >;;;>;;>    >>>;>>>;;;;;~           ~;;;;;;;;;;        >;;;;;;;;;;;>;;;      ;;;;>;;;;        ;;>;>;;;;   ",
"                         ..@@...@.@.@..@..@..@....@..@@@.@                                                                                 ,~;;,                      -,~,,                  ,,~,,,              '~;>>>;~                                       ",
"                         /.....@.........@....@....@.....                                                                                                                                                                                                       ",
"                            (...@.........@...........$                                                                                                                                                                                                         ",
"                              #...@.@@.@...@..@@@..+                                                                                                                                                                                                            ",
"                                (.@..@..@..@....@.*                                                                                                                                                                                                             ",
"                                  .....@....@...$                                                                                                                                                                                                               ",
"                                    ....@.....+                                                                                                                                                                                                                 ",
"                                      $+.@.+                                                                                                                                                                                                                    ",
"                                         +                                                                                                                                                                                                                      ",
"                                                                                                                                                                                                                                                                ",
"                                                                                                                                                                                                                                                                ",
"                                                                                                                                                                                                                                                                "};
