/* XPM */
static char * xsane_xpm[] = {
"48 48 856 2",
"  	c None",
". 	c #808080",
"+ 	c #828180",
"@ 	c #858482",
"# 	c #898882",
"$ 	c #96948B",
"% 	c #96938A",
"& 	c #9F9B8D",
"* 	c #A9A595",
"= 	c #ABA899",
"- 	c #959285",
"; 	c #8F8C83",
"> 	c #84837F",
", 	c #8A8986",
"' 	c #9D9A8F",
") 	c #AEAA99",
"! 	c #BDB8A2",
"~ 	c #C3BDA1",
"{ 	c #CEC5A5",
"] 	c #CFC5A0",
"^ 	c #D7CDA7",
"/ 	c #DFD6B2",
"( 	c #DED5B0",
"_ 	c #D8CFAA",
": 	c #DBD2AD",
"< 	c #D8CFA9",
"[ 	c #D8CEA9",
"} 	c #D0C59E",
"| 	c #C9BE96",
"1 	c #C8BC94",
"2 	c #C8BE99",
"3 	c #BAB193",
"4 	c #A39C86",
"5 	c #949083",
"6 	c #848380",
"7 	c #858583",
"8 	c #A19E91",
"9 	c #BBB69F",
"0 	c #D2CAA9",
"a 	c #E2DAB9",
"b 	c #DFD7B3",
"c 	c #D0C59F",
"d 	c #D9D0AB",
"e 	c #D3C9A2",
"f 	c #C8BD95",
"g 	c #C1B58E",
"h 	c #CBC098",
"i 	c #CABE96",
"j 	c #BFB38C",
"k 	c #CEC39B",
"l 	c #CBC099",
"m 	c #C4B991",
"n 	c #BEB28B",
"o 	c #C0B58E",
"p 	c #CDC29A",
"q 	c #CCC199",
"r 	c #B9AE87",
"s 	c #B4AB8C",
"t 	c #9C9685",
"u 	c #83827E",
"v 	c #93928B",
"w 	c #BEB9A4",
"x 	c #DFD8BA",
"y 	c #E3DBBA",
"z 	c #D7CDA8",
"A 	c #D1C7A1",
"B 	c #CCC19A",
"C 	c #BFB48E",
"D 	c #BAAE87",
"E 	c #C3B890",
"F 	c #C0B48D",
"G 	c #C2B78F",
"H 	c #C5BA92",
"I 	c #C3B790",
"J 	c #C4B890",
"K 	c #C6BA93",
"L 	c #BCB089",
"M 	c #B6AB84",
"N 	c #C2B68E",
"O 	c #C2B68F",
"P 	c #C6BB94",
"Q 	c #B8AC86",
"R 	c #C4B891",
"S 	c #B6AB85",
"T 	c #A19A80",
"U 	c #88857B",
"V 	c #8E8D89",
"W 	c #C2BCA5",
"X 	c #E6DFC1",
"Y 	c #DED5B1",
"Z 	c #C7BD96",
"` 	c #CABF98",
" .	c #C9BE97",
"..	c #BBAF88",
"+.	c #B3A882",
"@.	c #BAAF89",
"#.	c #C4B992",
"$.	c #C7BB94",
"%.	c #C7BC94",
"&.	c #BBB089",
"*.	c #B2A681",
"=.	c #BBB08A",
"-.	c #B1A681",
";.	c #C3B78F",
">.	c #BDB18B",
",.	c #9A9276",
"'.	c #838078",
").	c #9F9E96",
"!.	c #D8CFAB",
"~.	c #D4CAA3",
"{.	c #CDC29B",
"].	c #C5B991",
"^.	c #CABF97",
"/.	c #D0C69E",
"(.	c #B9AD87",
"_.	c #C8BC95",
":.	c #C6BB93",
"<.	c #CABE97",
"[.	c #CFC49C",
"}.	c #C9BD96",
"|.	c #C7BC95",
"1.	c #A29875",
"2.	c #817A67",
"3.	c #7F7E7C",
"4.	c #A6A49B",
"5.	c #E9E3C9",
"6.	c #D9CFAA",
"7.	c #C7BB93",
"8.	c #C1B58D",
"9.	c #AB9F7B",
"0.	c #A59B78",
"a.	c #B1A682",
"b.	c #BEB38D",
"c.	c #C9BD95",
"d.	c #C6BA92",
"e.	c #BAAF88",
"f.	c #C1B68F",
"g.	c #AA9F7A",
"h.	c #80785F",
"i.	c #7E7D7A",
"j.	c #92928E",
"k.	c #ECE9D6",
"l.	c #DDD5B4",
"m.	c #BEB38C",
"n.	c #C5B992",
"o.	c #BEB38B",
"p.	c #B9AE88",
"q.	c #A59A77",
"r.	c #A89E7B",
"s.	c #B9AD86",
"t.	c #C2B790",
"u.	c #BBAF87",
"v.	c #C0B48C",
"w.	c #BDB18A",
"x.	c #BAAE88",
"y.	c #BCB189",
"z.	c #A69B78",
"A.	c #6D6651",
"B.	c #797876",
"C.	c #D1CDBB",
"D.	c #DCD3B0",
"E.	c #B6AA84",
"F.	c #A69C79",
"G.	c #9B916F",
"H.	c #A39875",
"I.	c #958B6B",
"J.	c #887F61",
"K.	c #81785B",
"L.	c #867D60",
"M.	c #7F765A",
"N.	c #897F62",
"O.	c #8C8364",
"P.	c #9F9472",
"Q.	c #AEA27D",
"R.	c #B5A983",
"S.	c #A99F7B",
"T.	c #A69C78",
"U.	c #5E584A",
"V.	c #7F7F7F",
"W.	c #8B8A87",
"X.	c #E7E1C5",
"Y.	c #D3C8A2",
"Z.	c #B2A782",
"`.	c #9A906F",
" +	c #746B52",
".+	c #494433",
"++	c #393529",
"@+	c #3D3A32",
"#+	c #4A4841",
"$+	c #504E49",
"%+	c #585652",
"&+	c #585752",
"*+	c #595753",
"=+	c #605E58",
"-+	c #5D5B54",
";+	c #5F5B50",
">+	c #67614E",
",+	c #847A5D",
"'+	c #9E9371",
")+	c #C0B58D",
"!+	c #B2A783",
"~+	c #676048",
"{+	c #666563",
"]+	c #A3A093",
"^+	c #E4DCBB",
"/+	c #CEC49C",
"(+	c #B7AB85",
"_+	c #8F8566",
":+	c #564F3C",
"<+	c #333027",
"[+	c #3D3C38",
"}+	c #50504F",
"|+	c #6A6A6A",
"1+	c #7E7E7E",
"2+	c #7B7B79",
"3+	c #767369",
"4+	c #8A8267",
"5+	c #898062",
"6+	c #494844",
"7+	c #ABA796",
"8+	c #C2B895",
"9+	c #AA9F7B",
"0+	c #BFB48C",
"a+	c #9A906E",
"b+	c #423D2F",
"c+	c #373633",
"d+	c #5D5D5D",
"e+	c #80807F",
"f+	c #8F8A77",
"g+	c #D4CAA5",
"h+	c #CAC099",
"i+	c #B8AC87",
"j+	c #A39978",
"k+	c #BEB28A",
"l+	c #A39976",
"m+	c #3B3832",
"n+	c #B0AC9F",
"o+	c #CFC6A4",
"p+	c #665F48",
"q+	c #565656",
"r+	c #828281",
"s+	c #DED6B8",
"t+	c #322F28",
"u+	c #A5A296",
"v+	c #E0D7B5",
"w+	c #C1B68E",
"x+	c #776E54",
"y+	c #5F5E5B",
"z+	c #B3B1A5",
"A+	c #E4DDBC",
"B+	c #C0B58F",
"C+	c #B3A782",
"D+	c #A49976",
"E+	c #323029",
"F+	c #94928C",
"G+	c #E2DAB8",
"H+	c #D6CDA7",
"I+	c #C3B891",
"J+	c #ABA17D",
"K+	c #645E4C",
"L+	c #7F7F7E",
"M+	c #91908B",
"N+	c #C5C0AB",
"O+	c #E7E0C2",
"P+	c #D5CBA5",
"Q+	c #B8AD86",
"R+	c #ACA17E",
"S+	c #2C2A24",
"T+	c #838281",
"U+	c #D4CBA9",
"V+	c #D2C7A0",
"W+	c #BDB28A",
"X+	c #978D6D",
"Y+	c #6C685C",
"Z+	c #878682",
"`+	c #A7A290",
" @	c #938C75",
".@	c #7F765C",
"+@	c #928869",
"@@	c #A79C78",
"#@	c #9B9170",
"$@	c #2D2C29",
"%@	c #B2AB93",
"&@	c #988E6D",
"*@	c #757165",
"=@	c #7E7E7D",
"-@	c #74726C",
";@	c #706B5D",
">@	c #7A7259",
",@	c #958A6A",
"'@	c #B4A882",
")@	c #7D7459",
"!@	c #373737",
"~@	c #908E86",
"{@	c #D0C69F",
"]@	c #BDB189",
"^@	c #B4A983",
"/@	c #8E8465",
"(@	c #7B7669",
"_@	c #75726A",
":@	c #7C7560",
"<@	c #B2A781",
"[@	c #554F3C",
"}@	c #525253",
"|@	c #BDB596",
"1@	c #D0C6A1",
"2@	c #BBAF89",
"3@	c #A19673",
"4@	c #7D7766",
"5@	c #7F7C74",
"6@	c #90876B",
"7@	c #BEB28C",
"8@	c #B0A580",
"9@	c #25231C",
"0@	c #767676",
"a@	c #939084",
"b@	c #D1C7A0",
"c@	c #C8BD96",
"d@	c #A99E7A",
"e@	c #837A5D",
"f@	c #46443C",
"g@	c #908E89",
"h@	c #908F8B",
"i@	c #82827F",
"j@	c #80807E",
"k@	c #9B947B",
"l@	c #2E2E2E",
"m@	c #B3AC91",
"n@	c #B3A781",
"o@	c #9D9270",
"p@	c #6C644C",
"q@	c #322F26",
"r@	c #3D3C3B",
"s@	c #636363",
"t@	c #96938B",
"u@	c #A6A294",
"v@	c #ACA693",
"w@	c #AFA992",
"x@	c #B1AC96",
"y@	c #A39E8D",
"z@	c #949184",
"A@	c #8B8A86",
"B@	c #ACA899",
"C@	c #CBC4A6",
"D@	c #D2C9A8",
"E@	c #B4AC8F",
"F@	c #A29C89",
"G@	c #8D8A81",
"H@	c #81807F",
"I@	c #A29A7F",
"J@	c #494435",
"K@	c #656566",
"L@	c #C0B590",
"M@	c #BFB48D",
"N@	c #292720",
"O@	c #424242",
"P@	c #787879",
"Q@	c #908F89",
"R@	c #B3AFA0",
"S@	c #CEC7AD",
"T@	c #E0D7B4",
"U@	c #DFD6B4",
"V@	c #D1C69F",
"W@	c #C5BA93",
"X@	c #B0A786",
"Y@	c #999482",
"Z@	c #908B7B",
"`@	c #B2A886",
" #	c #CBC09A",
".#	c #ACA281",
"+#	c #95907F",
"@#	c #82817F",
"##	c #84827C",
"$#	c #575349",
"%#	c #B1A580",
"&#	c #302C23",
"*#	c #414141",
"=#	c #777777",
"-#	c #848382",
";#	c #AAA79A",
">#	c #D3CDB4",
",#	c #DCD3AF",
"'#	c #DDD4B1",
")#	c #D6CCA6",
"!#	c #CFC59F",
"~#	c #BDB28B",
"{#	c #B5AA84",
"]#	c #9F9575",
"^#	c #817D72",
"/#	c #82817D",
"(#	c #999076",
"_#	c #AAA07E",
":#	c #898474",
"<#	c #7E7D7C",
"[#	c #A39B80",
"}#	c #514B39",
"|#	c #2F2E2D",
"1#	c #6C6C6D",
"2#	c #878784",
"3#	c #B2AD9B",
"4#	c #DBD3B4",
"5#	c #E4DCBC",
"6#	c #D9CFAC",
"7#	c #C8BD97",
"8#	c #BCB18B",
"9#	c #ADA27D",
"0#	c #ACA17C",
"a#	c #988D6C",
"b#	c #7C7768",
"c#	c #A0987E",
"d#	c #888066",
"e#	c #7B7A75",
"f#	c #5F5948",
"g#	c #525252",
"h#	c #838381",
"i#	c #AFADA3",
"j#	c #DDD6B8",
"k#	c #C7BD9B",
"l#	c #978E6F",
"m#	c #7D755A",
"n#	c #716950",
"o#	c #5F5842",
"p#	c #5B5440",
"q#	c #4A4434",
"r#	c #58523F",
"s#	c #504B3A",
"t#	c #524C3B",
"u#	c #534D3C",
"v#	c #5B5442",
"w#	c #635C46",
"x#	c #645D47",
"y#	c #756C52",
"z#	c #7E7559",
"A#	c #918767",
"B#	c #988D6D",
"C#	c #A89D79",
"D#	c #A89D7A",
"E#	c #8A8162",
"F#	c #6E6B61",
"G#	c #A89F84",
"H#	c #867D61",
"I#	c #76746D",
"J#	c #949289",
"K#	c #B9B298",
"L#	c #9A9379",
"M#	c #635E4E",
"N#	c #4D4B43",
"O#	c #4E4D49",
"P#	c #5E5D5B",
"Q#	c #5F5E5D",
"R#	c #737271",
"S#	c #727271",
"T#	c #787877",
"U#	c #868582",
"V#	c #8D8B83",
"W#	c #87847A",
"X#	c #7E7C78",
"Y#	c #767574",
"Z#	c #757473",
"`#	c #757573",
" $	c #676562",
".$	c #65645E",
"+$	c #656259",
"@$	c #645F51",
"#$	c #635C49",
"$$	c #71694F",
"%$	c #57503D",
"&$	c #72716F",
"*$	c #838280",
"=$	c #B4AA88",
"-$	c #B1A680",
";$	c #7C7459",
">$	c #74726D",
",$	c #8C8A84",
"'$	c #959184",
")$	c #7F7D78",
"!$	c #7D7D7D",
"~$	c #9A988E",
"{$	c #C4BEA4",
"]$	c #C3BA98",
"^$	c #B1A785",
"/$	c #847F6E",
"($	c #7D7D7C",
"_$	c #787774",
":$	c #64625A",
"<$	c #585650",
"[$	c #8E8B81",
"}$	c #BCB18A",
"|$	c #AFA47F",
"1$	c #6F6851",
"2$	c #7A7A78",
"3$	c #BBB6A2",
"4$	c #CBC3A3",
"5$	c #746D58",
"6$	c #393846",
"7$	c #2B2D6D",
"8$	c #30317A",
"9$	c #51506E",
"0$	c #857C68",
"a$	c #847C61",
"b$	c #787773",
"c$	c #B5AE95",
"d$	c #9E9372",
"e$	c #5B574C",
"f$	c #C0BCA9",
"g$	c #B0A789",
"h$	c #28263B",
"i$	c #1519B3",
"j$	c #2B36F9",
"k$	c #3D4CFB",
"l$	c #2C38FB",
"m$	c #3A49FB",
"n$	c #242CE6",
"o$	c #4E4C94",
"p$	c #7B7359",
"q$	c #71706E",
"r$	c #939189",
"s$	c #706F6E",
"t$	c #A5A49C",
"u$	c #CCC5A9",
"v$	c #24233F",
"w$	c #252FE3",
"x$	c #252FFB",
"y$	c #2129FA",
"z$	c #596BFC",
"A$	c #4051FC",
"B$	c #4453FB",
"C$	c #232CFA",
"D$	c #2832FB",
"E$	c #4C4CB0",
"F$	c #585344",
"G$	c #818180",
"H$	c #DBD3B3",
"I$	c #8D8365",
"J$	c #D9D4BE",
"K$	c #5D5849",
"L$	c #181DC7",
"M$	c #2129FB",
"N$	c #3847FC",
"O$	c #303CFB",
"P$	c #7B8BFB",
"Q$	c #8296FC",
"R$	c #5263FC",
"S$	c #3341FB",
"T$	c #232CFB",
"U$	c #2731F9",
"V$	c #9390A4",
"W$	c #908769",
"X$	c #5D5C59",
"Y$	c #CEC8B0",
"Z$	c #CFC59E",
"`$	c #BFB38B",
" %	c #ABA07C",
".%	c #413E34",
"+%	c #818080",
"@%	c #7F7E7A",
"#%	c #918F89",
"$%	c #CFC7A8",
"%%	c #1C1D4F",
"&%	c #2731FB",
"*%	c #2F3CFB",
"=%	c #3340FB",
"-%	c #899DFC",
";%	c #C0CDFA",
">%	c #E7EFF8",
",%	c #A3B6FB",
"'%	c #5F70FC",
")%	c #5C70FC",
"!%	c #565EDA",
"~%	c #C8BE9A",
"{%	c #4E4B42",
"]%	c #D1CCB8",
"^%	c #CCC29C",
"/%	c #393528",
"(%	c #797979",
"_%	c #9F9C92",
":%	c #ABA58E",
"<%	c #8A836E",
"[%	c #817E77",
"}%	c #A8A69E",
"|%	c #AFA78B",
"1%	c #151887",
"2%	c #242DFB",
"3%	c #2D39FB",
"4%	c #5F73FC",
"5%	c #C9D9FA",
"6%	c #FBFBF5",
"7%	c #F3F7F7",
"8%	c #DDE8F9",
"9%	c #798DFC",
"0%	c #495BFC",
"a%	c #3B49F2",
"b%	c #DBD4BC",
"c%	c #76705A",
"d%	c #DFDAC5",
"e%	c #CBC19A",
"f%	c #484333",
"g%	c #696969",
"h%	c #828282",
"i%	c #B0ADA0",
"j%	c #D0C8A8",
"k%	c #90896F",
"l%	c #57544D",
"m%	c #A3A094",
"n%	c #90876A",
"o%	c #161A97",
"p%	c #222BFA",
"q%	c #2A35FB",
"r%	c #6476FC",
"s%	c #E2EBF8",
"t%	c #DAE5F9",
"u%	c #6E80FC",
"v%	c #4857FC",
"w%	c #3A48FB",
"x%	c #D7D1BE",
"y%	c #E9E2C7",
"z%	c #474232",
"A%	c #616162",
"B%	c #90908F",
"C%	c #DAD8CA",
"D%	c #66604A",
"E%	c #3F3F3F",
"F%	c #969284",
"G%	c #A79D7C",
"H%	c #272C83",
"I%	c #4253FC",
"J%	c #5769FC",
"K%	c #7587FC",
"L%	c #CEDCFA",
"M%	c #F9FAF5",
"N%	c #F1F6F7",
"O%	c #99ACFC",
"P%	c #4352FB",
"Q%	c #2E39F0",
"R%	c #D8D0B7",
"S%	c #444035",
"T%	c #C7C4B5",
"U%	c #E6E0C3",
"V%	c #3A3529",
"W%	c #6B6B6C",
"X%	c #8E8E8B",
"Y%	c #E0DBC4",
"Z%	c #DCD3B1",
"`%	c #958B6C",
" &	c #31302E",
".&	c #878580",
"+&	c #D2C8A4",
"@&	c #3D3B5A",
"#&	c #222BF9",
"$&	c #4656FC",
"%&	c #B6C7FB",
"&&	c #D7E2F9",
"*&	c #8FA1FB",
"=&	c #7487FC",
"-&	c #4150FB",
";&	c #5558E0",
">&	c #BCB598",
",&	c #343433",
"'&	c #A5A39B",
")&	c #E8E2C7",
"!&	c #AEA37F",
"~&	c #24221C",
"{&	c #7B7B7B",
"]&	c #CFCCBB",
"^&	c #C5BB95",
"/&	c #7D7559",
"(&	c #B9B092",
"_&	c #8B8367",
":&	c #2B31B9",
"<&	c #2630FB",
"[&	c #3A49FC",
"}&	c #4B5CFC",
"|&	c #7F94FC",
"1&	c #262FFA",
"2&	c #5061FC",
"3&	c #3B4BFC",
"4&	c #2C36F8",
"5&	c #BAB7C5",
"6&	c #5F5F60",
"7&	c #9C9A91",
"8&	c #E1DABE",
"9&	c #D8CEAA",
"0&	c #766E54",
"a&	c #262625",
"b&	c #878684",
"c&	c #E7E0C3",
"d&	c #5E5A4E",
"e&	c #8C8980",
"f&	c #69635F",
"g&	c #2931D3",
"h&	c #2B37FB",
"i&	c #2732FB",
"j&	c #2E3BFB",
"k&	c #4B5EFC",
"l&	c #252EFA",
"m&	c #2A34FA",
"n&	c #333FFA",
"o&	c #9293CA",
"p&	c #AFA789",
"q&	c #E3DBBB",
"r&	c #D2C8A2",
"s&	c #CBBF97",
"t&	c #C3B892",
"u&	c #4A4535",
"v&	c #505051",
"w&	c #D5CBA8",
"x&	c #998E6D",
"y&	c #7E7866",
"z&	c #81817F",
"A&	c #8B8675",
"B&	c #B0A681",
"C&	c #867E6E",
"D&	c #4345B0",
"E&	c #2730EF",
"F&	c #3543FC",
"G&	c #2832F8",
"H&	c #3B3EE2",
"I&	c #B1B1CA",
"J&	c #B8B196",
"K&	c #2F2D27",
"L&	c #707070",
"M&	c #97958E",
"N&	c #D7D4C0",
"O&	c #E6DEBF",
"P&	c #D2C7A1",
"Q&	c #8A8163",
"R&	c #222120",
"S&	c #B4AD93",
"T&	c #D1C79F",
"U&	c #B5AA83",
"V&	c #8E8976",
"W&	c #898780",
"X&	c #7D796B",
"Y&	c #978E6E",
"Z&	c #B1A88D",
"`&	c #9A94A2",
" *	c #9A95A8",
".*	c #BCB6AF",
"+*	c #CFC7AA",
"@*	c #857E66",
"#*	c #2E2C29",
"$*	c #6F6F70",
"%*	c #C2BCA3",
"&*	c #DED6B5",
"**	c #9C9170",
"=*	c #2D2920",
"-*	c #5F5F5F",
";*	c #8E8C84",
">*	c #CFC49D",
",*	c #B7AC85",
"'*	c #BBB18E",
")*	c #ADA58A",
"!*	c #9B9785",
"~*	c #8B8980",
"{*	c #828280",
"]*	c #7B7A78",
"^*	c #6F6A5C",
"/*	c #7A725A",
"(*	c #A59A78",
"_*	c #8E8567",
":*	c #4E4837",
"<*	c #3B3933",
"[*	c #505050",
"}*	c #B2AEA1",
"|*	c #D4CFB6",
"1*	c #DED5B4",
"2*	c #CEC5A0",
"3*	c #CDC39B",
"4*	c #3A3629",
"5*	c #484849",
"6*	c #A09A87",
"7*	c #B8AD87",
"8*	c #B5AA85",
"9*	c #C0B48E",
"0*	c #C1B795",
"a*	c #BCB497",
"b*	c #B1AA92",
"c*	c #A7A28E",
"d*	c #A5A190",
"e*	c #A8A495",
"f*	c #A6A292",
"g*	c #A19C8B",
"h*	c #9E9A89",
"i*	c #ADA896",
"j*	c #CEC8AD",
"k*	c #E0D8B8",
"l*	c #E5DDBC",
"m*	c #D7CEA9",
"n*	c #CCC099",
"o*	c #928868",
"p*	c #312D23",
"q*	c #494949",
"r*	c #98917D",
"s*	c #CBBF98",
"t*	c #D2C8A1",
"u*	c #DAD0AB",
"v*	c #D4C9A3",
"w*	c #DAD0AC",
"x*	c #D0C6A0",
"y*	c #B7AC86",
"z*	c #776F54",
"A*	c #545455",
"B*	c #898475",
"C*	c #3D382B",
"D*	c #333231",
"E*	c #707071",
"F*	c #7F7D79",
"G*	c #7B745F",
"H*	c #ADA17D",
"I*	c #B8AC85",
"J*	c #3C372A",
"K*	c #302F2D",
"L*	c #656565",
"M*	c #7B7974",
"N*	c #726D5F",
"O*	c #6B644F",
"P*	c #857C5E",
"Q*	c #ABA07B",
"R*	c #847A5E",
"S*	c #312E25",
"T*	c #3B3A39",
"U*	c #74736F",
"V*	c #6C685E",
"W*	c #656050",
"X*	c #655E49",
"Y*	c #70684F",
"Z*	c #80775B",
"`*	c #918768",
" =	c #8B8163",
".=	c #8C8263",
"+=	c #968C6B",
"@=	c #A09673",
"#=	c #A69B79",
"$=	c #8E8566",
"%=	c #7C7358",
"&=	c #6B634C",
"*=	c #5B5540",
"==	c #3B3932",
"-=	c #474644",
";=	c #606060",
">=	c #7A7A79",
",=	c #6F6E6A",
"'=	c #65645F",
")=	c #615F5A",
"!=	c #56534C",
"~=	c #535048",
"{=	c #57544B",
"]=	c #58554C",
"^=	c #58544B",
"/=	c #56534B",
"(=	c #545149",
"_=	c #504D46",
":=	c #494741",
"<=	c #565552",
"[=	c #585856",
"}=	c #696868",
". . . . . . . . . . . . . . . . . . . + @ # $ % & * = - ; > + . . . . . . . . . . . . . . . . . ",
". . . . . . . . . . . . . , ' ) ! ~ { ] ^ / ( _ : < [ } | 1 2 3 4 5 6 . . . . . . . . . . . . . ",
". . . . . . . . . 7 8 9 0 a b : c d e f g g h | i j k l m n o p q q r s t u . . . . . . . . . . ",
". . . . . . . v w x y z A B C D E F G H I J K L M N F N O m N P n Q R R E S T U . . . . . . . . ",
". . . . . V W X Y Z `  .f N ..+.O E @.#.$.%.O &.*.G O =.R %.1 G &.-.;.O >.#.$.=.,.'.. . . . . . ",
". . . . ).x !.~.{.].^.1 /.H (.D _.^.]. .m } %.r r :.<.:.| f [.}...(.R ^.%.f f k |.1.2.3.. . . . ",
". . . 4.5.6.n n $.;.| ;.7.8.;.9.0.a.;.b.S 7.g R D L H I c.E d.8.R e...#.R f ].].f.O g.h.i.. . . ",
". . j.k.l.:.F ..I g m.L 7.q n.o.&.p.q.r.s.J  .t.u.s.v.w.w.x.J h K m.w.G g j y.;.l :.n z.A.B.. . ",
". . C.D.j o.%.].^.L E.F w...&.7.N m F.G.H.I.J.K.L.M.J.N.O.P.Q.R.Q 1 I c.O Q x.j L s.K S.T.U.V.. ",
". W.X.Y. .].<.l $.n s.&.].P L Z.`. +.+++@+#+$+%+&+%+*+=+-+;+>+,+'+m.<. .v.D (.H B )+!+$.t.~+{+. ",
". ]+^+/+=.H 7.c.$.n (+L p._+:+<+[+}+|+1+. . . . . . . . . . . 2+3+4+Z.^.O x..._.i g.R H f 5+6+. ",
". 7+8+9+F 7.].0+h $.L a+b+c+d+1+. . . . . . . . . . . . . . . . . e+f+g+h+E (.D i+j+1 k+%.l+m+. ",
". n+o+1 I L Q N g t.F p+q+. . . . . . . . . . . . . . . . . . . . . r+s+{.O J F |.w.S j g 9+t+. ",
". u+v+| g s.E.w+;.(.0+x+y+. . . . . . . . . . . . . . . . . . . . . z+A+B+w+%.$.E @.C+O j D+E+. ",
". F+G+H+I+(.r | h ].c.J+K+L+. . . . . . . . . . . . . . . . . . M+N+O+P+_.f f k h ..Q+O c.R+S+. ",
". T+U+V+8.N D m.f N f W+X+Y+. . . . . . . . . . . . . . . . . Z+`+ @.@+@@@n O n.g I ..&.J #@$@. ",
". . %@[ {.].w...G w+o &.n &@*@. . . . . . . . . . . . . . . . . . . =@-@;@>@,@'@| |.n L w.)@!@. ",
". . ~@{@I o._.m ^...E.)+]@^@/@(@. . . . . . . . . . . . . . . . . . . . . e+_@:@&@<@_.J 8.[@}@. ",
". . . |@1@n.| ^.H o.Q+L n.P 2@3@4@V.. . . . . . . . . . . . . . . . . . . . . . 5@6@7@<.8@9@0@. ",
". . . a@b@<.1  .c@n Q k+c.o d@e@.+f@=@. . . . . . . . . . + g@h@i@. . . . . . . . j@k@O 5+l@. . ",
". . . . m@b@7.v.^.n.&.n@o@p@q@r@s@1+. . . 6 t@u@v@w@x@y@z@> A@B@C@D@E@F@G@. . . . . H@I@J@K@. . ",
". . . . Z+L@j G f.M@d@p+N@O@P@. . . Q@R@S@T@U@P+B V@A V@q W@X@Y@i@Z@`@ #|..#+#@#. . . ##$#. . . ",
". . . . . +#n G %# +&#*#=#. . -#;#>#,#'#)#!#c@~#{#I F x.#.}.<.m.]#^#/#(#E.m O _#:#e+. . <#. . . ",
". . . . . . [#8@}#|#1#. . 2#3#4#5#6#7#I+8#8#@.9#0#x.g F E :.q _.{#a#b#+ c#P q q @.d#e#. . . . . ",
". . . . . . > f#g#. . h#i#j#k#l#m#n#o#p#q#r#s#t#u#v#w#x#y#z#A#B#C#D#E#F#e+G#c.| 8.{#H#I#. . . . ",
". . . . . . . 1+. . J#K#L#M#N#O#P#Q#R#S#T#. U#V#W#X#Y#Z#`# $.$+$@$#$$$%$&$*$=$| p _.-$;$>$. . . ",
". . . . . . . . . ,$'$)$!$. . . . . . . ~${$U+]$!++.^$/$($. . . . V._$:$<$. [$` E }$1 |$1$2$. . ",
". . . . . . . . . . . . . . . . . . r+3$4$5$6$7$8$9$0$8@a$b$. . . . . . V.. . c$[ 7@%.K d$e$. . ",
". . . . . . . . . . . . . . . . . . f$g$h$i$j$k$l$m$n$o$F.p$q$. . . . . . . . r$b ].<.].I+w#s$. ",
". . . . . . . . . . . . . . . . . t$u$v$w$x$y$z$A$B$C$D$E$8@F$!$. . . . . . . G$H$} | F J I$$+. ",
". . . . . . . . . . . . . . . . . J$K$L$M$N$O$P$Q$R$S$T$U$V$W$X$. . . . . . . . Y$Z$(.`$n. %.%. ",
". . . . . . . . . +%@%. . . . . #%$%%%&%*%=%-%;%>%,%z$'%)%!%~%{%. . . . . . . . ]%^%S O L d@/%(%",
". . . . . . r+_%:%<%[%. . . . . }%|%1%2%3%4%5%6%6%7%8%9%0%a%b%c%. . . . . . . . d%e%r F | C f%g%",
". . . . h%i%j%k%l%!$. . . . . . m%n%o%p%q%r%s%6%6%6%t%u%v%w%x%h.. . . . . . . j.y%` D j f @.z%A%",
". . . B%C%x D%E%. . . . . . . . F%G%H%I%J%K%L%6%M%N%O%P%S$Q%R%S%. . . . . . . T%U%{.w.e.&.(+V%W%",
". . X%Y%Z%`% &. . . . . . . . . .&+&@&#&S$$&Q$%&&&*&=&-&q%;&>&,&. . . . . . '&)&e%n c.O !&z.~&{&",
". . ]&y ^&/&}+. . . . . . . . . . (&_&:&<&[&[&}&|&1&2&3&4&5&>+6&. . . . . 7&8&9&l &.%.f t.0&a&. ",
". b&c&!.:.P.d&. . . . . . . . . . e&8#f&g&h&i&j&k&l&m&n&o&p& &. . . . G$i%q&r&k s&F ^.].t&u&v&. ",
". T+w&l :.)+x&y&z&. . . . . . . . . A&B&C&D&E&2%F&G&H&I&J&K&L&. . . M&N&O&P&]@L K ].f w.Q&R&1+. ",
". . S&T&R w.U&^@j+V&W&e+. . . . . . V.X&Y&-.Z&`& *.*+*@*#*$*. . t@%*A+&*!#R g k+].8.E.**=*-*. . ",
". . ;*>*}.s.,*~#9+S P '*)*!*~*{*. . . . ]*^*/*(*_*:*<*[*=@J#}*|*1*2*3*`$s.g K d.K E.&@4*5*. . . ",
". . . 6*F &.7*8*W@d.^.>*P+^.I+9*0*a*b*c*d*e*f*g*h*i*w j*k*X l*m*I+..;.^.c@%.^.n*O o*p*q*. . . . ",
". . . . r*|$U&O f 8.| J s*I g w.` t*{.P+e u*v*e B g+w*x*r&^.p I F Q+g | I :.N y*z*~&A*. . . . . ",
". . . . . B*I. %n N :.L :.^._.L ..O R | 0+%.{.l w.w.t.m _.j I l | L D n F (+J.C*D*E*. . . . . . ",
". . . . . . F*G*I.H.H*..W+g n %.8._.n (+n F g n _.g %.F Q &.0+M@]@R I*9.)@J*K*L*. . . . . . . . ",
". . . . . . . . M*N*O*P*G.Q*<@F I 0+n +.x.)+t.}$K K O j <@{#r ^@&@R*[@S*T*K@. . . . . . . . . . ",
". . . . . . . . . . L+U*V*W*X*Y*Z*`* =.=+=@@z.@=0.D+#=$=%=&=*=b+==-=;={&. . . . . . . . . . . . ",
". . . . . . . . . . . . . . 1+>=,='=)=!=~={=]=^=/=(=_=:=<=[=}={&. . . . . . . . . . . . . . . . "};
