/* XPM */
static char * xsane_48x48_xpm[] = {
"48 48 221 2",
"  	c None",
". 	c #AEA282",
"+ 	c #D6CAA6",
"@ 	c #EAE6C6",
"# 	c #DED6B2",
"$ 	c #DACEAA",
"% 	c #E6DEBE",
"& 	c #DED6AE",
"* 	c #E6DEC2",
"= 	c #DAD2AA",
"- 	c #BEB68E",
"; 	c #C2B68E",
"> 	c #BEB692",
", 	c #AAA27E",
"' 	c #EAE2C2",
") 	c #E2DAB6",
"! 	c #DAD2AE",
"~ 	c #CABE96",
"{ 	c #D6CAA2",
"] 	c #CEC29A",
"^ 	c #D6CEA6",
"/ 	c #C6BA92",
"( 	c #D2C69E",
"_ 	c #AEA682",
": 	c #CAC29A",
"< 	c #B2AA82",
"[ 	c #CECAB6",
"} 	c #E6DEBA",
"| 	c #B6AA82",
"1 	c #D2CAA2",
"2 	c #AEA67E",
"3 	c #EAE6D2",
"4 	c #CEC29E",
"5 	c #BAAE86",
"6 	c #BEB28A",
"7 	c #AA9E7A",
"8 	c #BEB28E",
"9 	c #AEA27E",
"0 	c #A69A7A",
"a 	c #968E6E",
"b 	c #C6BA96",
"c 	c #DED2AE",
"d 	c #CEC69E",
"e 	c #BAAE8A",
"f 	c #9A8E6E",
"g 	c #E2DEC6",
"h 	c #E2D6B2",
"i 	c #B6AE86",
"j 	c #C6BE96",
"k 	c #A29676",
"l 	c #B6AA86",
"m 	c #B2A67E",
"n 	c #968E6A",
"o 	c #7E7256",
"p 	c #F6F2E6",
"q 	c #B2A682",
"r 	c #665E46",
"s 	c #C2BA92",
"t 	c #A69A76",
"u 	c #A29A76",
"v 	c #9E9672",
"w 	c #4E4A36",
"x 	c #EAE2C6",
"y 	c #B2AA86",
"z 	c #C2B692",
"A 	c #968A6A",
"B 	c #867A5E",
"C 	c #564E3A",
"D 	c #3A3226",
"E 	c #2E2A1E",
"F 	c #26261A",
"G 	c #221E16",
"H 	c #1A1612",
"I 	c #1E1A16",
"J 	c #322E22",
"K 	c #3A3626",
"L 	c #4A4632",
"M 	c #BAB28A",
"N 	c #A29672",
"O 	c #625E46",
"P 	c #56523E",
"Q 	c #1A1A12",
"R 	c #060606",
"S 	c #5A523E",
"T 	c #16160E",
"U 	c #B6AE8A",
"V 	c #7E765A",
"W 	c #020206",
"X 	c #8A8262",
"Y 	c #A69E7A",
"Z 	c #EEE6CE",
"` 	c #1E1E16",
" .	c #16120E",
"..	c #5E5642",
"+.	c #EEEAD2",
"@.	c #120E0E",
"#.	c #5A563E",
"$.	c #7A7256",
"%.	c #9E9272",
"&.	c #E2DABA",
"*.	c #CABE9A",
"=.	c #72664E",
"-.	c #726A52",
";.	c #82765A",
">.	c #4E4636",
",.	c #2A261E",
"'.	c #928666",
").	c #26221A",
"!.	c #A29A8A",
"~.	c #AAA27A",
"{.	c #867E5E",
"].	c #EEEACE",
"^.	c #D2C6A2",
"/.	c #8A7E62",
"(.	c #766E52",
"_.	c #625A46",
":.	c #E2DABE",
"<.	c #9E9676",
"[.	c #5E5A42",
"}.	c #3E3A2A",
"|.	c #9A926E",
"1.	c #8E8666",
"2.	c #DED6BE",
"3.	c #8A8266",
"4.	c #4A4232",
"5.	c #464232",
"6.	c #625A42",
"7.	c #E6DABA",
"8.	c #766E56",
"9.	c #D6CAAE",
"0.	c #CAC29E",
"a.	c #524A3A",
"b.	c #121216",
"c.	c #2632B6",
"d.	c #222EFA",
"e.	c #262A92",
"f.	c #5A5246",
"g.	c #423E2E",
"h.	c #CABE9E",
"i.	c #CEC6A2",
"j.	c #222AFA",
"k.	c #161EFA",
"l.	c #5E72FE",
"m.	c #2A36FA",
"n.	c #5266FE",
"o.	c #3242FE",
"p.	c #0E0E0A",
"q.	c #726A4E",
"r.	c #EEE6CA",
"s.	c #0A0A0A",
"t.	c #2E3AFA",
"u.	c #7A92FE",
"v.	c #465AFE",
"w.	c #6276FE",
"x.	c #1A22FA",
"y.	c #3A4AFE",
"z.	c #2632FA",
"A.	c #4252FE",
"B.	c #4256FE",
"C.	c #A6BAFE",
"D.	c #5A6AFE",
"E.	c #4A5EFE",
"F.	c #1E22FA",
"G.	c #4E5AD6",
"H.	c #3E4EFE",
"I.	c #3646FE",
"J.	c #7286FE",
"K.	c #E6F6FE",
"L.	c #FAFAF6",
"M.	c #BED2FE",
"N.	c #627AFE",
"O.	c #AABAFE",
"P.	c #5A6EFE",
"Q.	c #D2CAAA",
"R.	c #5A5642",
"S.	c #1E26FA",
"T.	c #BACEFE",
"U.	c #9AAEFE",
"V.	c #667AFE",
"W.	c #F2EED6",
"X.	c #F2EEDE",
"Y.	c #EAE2CE",
"Z.	c #262EFA",
"`.	c #566AFE",
" +	c #EEF2F6",
".+	c #F6F6F6",
"++	c #6A624A",
"@+	c #96AAFE",
"#+	c #F6FAF6",
"$+	c #7E92FE",
"%+	c #3646FA",
"&+	c #FAFAF2",
"*+	c #7E766A",
"=+	c #728AFE",
"-+	c #5A72FE",
";+	c #BED6FE",
">+	c #5262FE",
",+	c #323EFA",
"'+	c #26261E",
")+	c #524E3A",
"!+	c #3642FE",
"~+	c #A29A7A",
"{+	c #665E6E",
"]+	c #BAB2AA",
"^+	c #867E62",
"/+	c #6E664A",
"(+	c #AEA27A",
"_+	c #2E2A22",
":+	c #D6CEAA",
"<+	c #EAE6CA",
"[+	c #AAA282",
"}+	c #827A5A",
"|+	c #221E1A",
"1+	c #463E32",
"2+	c #222216",
"3+	c #3A362A",
"4+	c #423A2E",
"5+	c #4A4636",
"6+	c #423A2A",
"7+	c #463E2E",
"8+	c #22221A",
"                                                                                                ",
"                                      . + @ # $ % & * = - ; >                                   ",
"                        , ' ) @ ! ) ~ { ] { ^ ~ ^ / ( _ : / { # ~ ] <                           ",
"                  [ % } # ^ ~ | ; : 1 / / ~ ~ ; 2 ; ~ 1 ; ; ; ~ / 2 / ] ] _                     ",
"              3 % ^ 4 ~ 5 / 6 7 ~ 6 8 ; / | ; 5 7 / 6 5 ; : 5 ; 6 9 ~ 6 5 / / 0 a               ",
"          b @ c ~ ~ ] / d ( e 5 ; ; ~ ] / d ( e ; e ; ] ] / ~ ( e ; 5 / ] ] / ~ ] f             ",
"        g h / ; ( 5 : ~ d 5 | | i j 5 ~ k : 5 l m ; ~ 6 ~ ~ d 5 5 | / ] 6 ~ ~ : 5 < n o         ",
"      @ p 1 m 5 q 6 d e 5 1 ~ m 5 9 m d 6 5 1 ~ m 5 9 5 ~ 6 5 ^ ~ l e 9 5 ] ; 5 ^ / l 9 r       ",
"      @ / s ^ ~ ~ 5 ; ; ; 5 8 + ~ / 5 q 5 m t t l k 7 u _ | 6 l 6 ( ~ / 6 ; ; ; l ; ~ v 7 w     ",
"    x h + 6 y z l ; e l 6 d 6 9 | A B C D E F G G H I J K L r A t , ; 6 / M | 6 d 5 N ; 5 O     ",
"    ' ) ] ; d ; ] : ; 5 + 5 B P Q R                             S A | 1 : / ; ^ / 6 ^ - ] A T   ",
"    @ U 6 ; d e / m ~ 5 V H W                                       X ] < ~ / 6 ; Y 1 6 ; v H   ",
"    Z ~ ; ; , ~ ; ~ ~ k W                                             @ ^ ~ ~ 5 / ; , ; / ; `   ",
"    % / 6 6 7 ~ 6 5 e N  .                                            @ ; 5 / e 8 ; Y ~ 6 m T   ",
"    ) ! 1 ; / / ~ ~ ~ e ..                                        ) +.$ ~ / / ] 1 6 ; ; ~ 5 @.  ",
"    = ) ; l m 8 / | ~ / 5 #.                                    < X $.f t ; / ~ 6 | | ; ; %.R   ",
"      &.^ ( 5 6 ; ; ~ / *.l =.                                          C -.f | { 1 ; ; 6 A W   ",
"      + ] / ~ ~ ~ 5 / ; 6 ; k -.                                              =.A 6 ~ ~ ] ..    ",
"        ) ; - ~ ; / ; q j { 5 Y ;.                                                B 9 ~ | Q     ",
"        $ ] + l ~ 5 e / ^ ( 2 t >.,.                                                '.l f W     ",
"          ~ d 5 ; e / 6 9 $.).W                 > ( ( !.        1 ' ~ ~.              9 L       ",
"          6 5 ~ e ~ l {.I W           ) ].' % { / ^ ( ^ 1 ^./ |     , ] d 5 ,           E       ",
"            5 1 5 /.).W           ' ) + ( ] 6 / _ ~ ; ; i ; ~ 6 _ (.  X 5 5 j q X               ",
"              6 _.W         :.].&.= ~ ; 5 <.s q ; 5 ; ; ; ; ] d 6 i $.    ; ~ ] ] '.            ",
"                          @ 4 {.[.C w }.J }.J J J }.}.w C r V /.|., %.C     ; d ; 6 1.[.        ",
"                      2.3.).T                                   4.5.6._.    e ^.( ^ ; 1.        ",
"                                          7.% z %.5 / N                 J     ~ ( ; ~ 6 8.      ",
"                                      9.0.a.b.c.d.e.f.Y 2                       ) 6 ~ ] i g.    ",
"                                    h.i.R j.k.l.m.n.o.k.u t p.                  ) 6 ( | ~ q.    ",
"                                    r.s.j.t.j.u.v.w.x.y.k.6 -.                  = ~ ] 5 / m ).  ",
"                                  % -.j.j.z.A.B.C.D.E.F.m.G.+ I                 ].1 m ; 5 | E   ",
"                                  +.R F.H.I.J.K.L.M.N.O.P.m.! K                 % $ 6 / 6 ; g.  ",
"              Q.c R.              &.W S.z.v.T.L.L.L.L.U.V.A.W.~.                X.] / / : ~ w   ",
"          Y.' =.W                 6 W Z.Z.`. +L.L.L..+l.j.j.W.{.                +.^./ 5 l / w   ",
"        +.x ++W                   # ,.y.t.z.@+L.L.#+$+%+S.m.W.H               &+&.1 / 6 9 , E   ",
"      @ $ Y p.                    $ *+S.A.y.=+-+;+m.>+V.,+j.! W             :.@ / m ~ / d 7 s.  ",
"    @ @ { _ '+                      d w Z.v.m.A.`.S.t.k.H.Z w             ) @ ! ^ / ~ ( { 1.W   ",
"    ! ! *.l /.                      A 6 )+j.S.j.y.!+k.v.Z 1.W           * ' ; ; ~ l / l 6 `     ",
"    ~ d j ; / ~+|.                    %.| k {+j.m.!+]+&+^+W         } W.x 1 5 l / / ~ | /+W     ",
"      ^ + 6 7 5 (+_ 9                     X 6 ] / ; V Q W       % $ ! 6 5 5 / ~ ] 5 _ ;.W       ",
"        ; *.q / t 0.] ^ $ ; : (+0               _+      :+<++.) c ; ; ~ 1 / ( 1 6 8 $.R         ",
"        _ | , : u ~ ; / d ] 6 5 + + ^ ( ^ ) # ] d ) ) x $ ^ d ] 5 l / j ( ; ; ~ 5 )+W           ",
"          f t t 2 j / / ; ] ] 6 9 2 : : ~ ~ ^.{ s l q d ~ / / d ] 6 9 (+/ / 5 X F W             ",
"              -.k m m e ; / 6 5 | 6 m l 5 ~ / 6 ; | e [+l 5 ; / ; 5 | 5 f o _+W                 ",
"                  q.}+%.m q (+/ ; : ; 5 5 ; 5 9 ~ / ] ; l q ; | 7 5 f ++|+W                     ",
"                        )+(.V %., 6 v 9 9 ; / e / / ] , 9 %.f ;.1+2+R                           ",
"                                _+}.3+4+3+3+5+5+4.6+7+K 8+ .p.                                  ",
"                                                                                                "};
