/* XPM */
static char * xsane_16x16_xpm[] = {
"16 16 69 1",
" 	c None",
".	c #CECAB6",
"+	c #DED6B2",
"@	c #B6AA82",
"#	c #D2CAA2",
"$	c #CABE96",
"%	c #AEA67E",
"&	c #C2B68E",
"*	c #CEC29A",
"=	c #C6BA92",
"-	c #BAAE86",
";	c #CEC69E",
">	c #CAC29A",
",	c #B2A67E",
"'	c #BEB28A",
")	c #968E6A",
"!	c #E2D6B2",
"~	c #B2AA86",
"{	c #AEA27E",
"]	c #867A5E",
"^	c #2E2A1E",
"/	c #221E16",
"(	c #322E22",
"_	c #665E46",
":	c #AAA27E",
"<	c #A29672",
"[	c #625E46",
"}	c #020206",
"|	c #D6CEA6",
"1	c #E2DAB6",
"2	c #8A8262",
"3	c #A69A76",
"4	c #9E9272",
"5	c #BEB68E",
"6	c #C6BE96",
"7	c #A69E7A",
"8	c #1A1A12",
"9	c #1E1A16",
"0	c #EAE2C2",
"a	c #867E5E",
"b	c #4E4A36",
"c	c #3E3A2A",
"d	c #7E765A",
"e	c #8E8666",
"f	c #524A3A",
"g	c #222EFA",
"h	c #423E2E",
"i	c #726A52",
"j	c #2632FA",
"k	c #A6BAFE",
"l	c #1E22FA",
"m	c #D6CAA6",
"n	c #566AFE",
"o	c #FAFAF6",
"p	c #5E72FE",
"q	c #F2EED6",
"r	c #EAE6C6",
"s	c #26261E",
"t	c #465AFE",
"u	c #161EFA",
"v	c #DAD2AE",
"w	c #AA9E7A",
"x	c #AEA682",
"y	c #DACEAA",
"z	c #C2BA92",
"A	c #524E3A",
"B	c #9E9672",
"C	c #9A8E6E",
"D	c #222216",
"                ",
"   .+@#$%#&%*   ",
"  =-;@->,';@'>) ",
" !~&'{]^/(_:='<[",
" $:$}       |-:&",
" 1,@-      23$@4",
"  5=67        {8",
"  -$9  0=|= ;   ",
"     abc(bd: ;e ",
"       fg7    $h",
"      ijklm   ,@",
"  0   }nopq   ==",
" rs   ;tnub  v$e",
" |wx   2=8 y-$x ",
"  36&'>$z;='=2  ",
"    A4B&=:CD    "};
